<svg id="Ebene_1" data-name="Ebene 1" xmlns="http://www.w3.org/2000/svg" viewBox="0 0 81 81"><defs><style>.cls-1{fill:#009ff1;}</style></defs><title>twitter</title><g id="Symbols"><g id="iconmonstr-twitter-4"><path id="Shape" class="cls-1" d="M40.55,1A39.5,39.5,0,1,0,80,40.45,39.5,39.5,0,0,0,40.55,1Zm20,31.75c.6,13.3-9.32,28.12-26.87,28.12a26.75,26.75,0,0,1-14.49-4.25,19,19,0,0,0,14-3.91,9.48,9.48,0,0,1-8.83-6.57,9.48,9.48,0,0,0,4.27-.16A9.47,9.47,0,0,1,21,36.54a9.43,9.43,0,0,0,4.28,1.18A9.47,9.47,0,0,1,22.36,25.1,26.84,26.84,0,0,0,41.85,35,9.46,9.46,0,0,1,58,26.35a18.86,18.86,0,0,0,6-2.29,9.49,9.49,0,0,1-4.16,5.23,18.86,18.86,0,0,0,5.43-1.49,19,19,0,0,1-4.72,4.9Z"/></g></g></svg>